<?xml version="1.0" standalone="no"?>
<!DOCTYPE svg PUBLIC "-//W3C//DTD SVG 20010904//EN"
 "http://www.w3.org/TR/2001/REC-SVG-20010904/DTD/svg10.dtd">
<svg version="1.0" xmlns="http://www.w3.org/2000/svg"
 width="1920.000000pt" height="1080.000000pt" viewBox="0 0 1920.000000 1080.000000"
 preserveAspectRatio="xMidYMid meet">

<g transform="translate(0.000000,1080.000000) scale(0.100000,-0.100000)"
fill="#000000" stroke="none">
<path d="M3628 7264 c-463 -72 -873 -307 -1168 -669 -198 -244 -327 -522 -392
-850 -30 -149 -33 -519 -5 -660 69 -348 193 -618 401 -875 580 -714 1592 -894
2376 -422 569 343 911 951 910 1620 -1 935 -675 1720 -1593 1856 -129 20 -407
20 -529 0z m187 -1476 c133 -235 160 -290 160 -323 0 -40 -73 -180 -353 -672
l-75 -133 -244 0 -244 0 6 23 c4 12 15 36 25 52 10 17 82 152 160 300 79 149
158 298 176 333 19 34 34 68 34 74 0 6 -33 72 -74 147 -40 75 -95 177 -121
226 -27 50 -67 125 -91 167 -23 42 -39 79 -36 82 3 3 121 6 261 6 l256 0 160
-282z m818 162 c33 -58 104 -184 159 -280 93 -164 99 -178 95 -221 -2 -30 -16
-66 -37 -100 -18 -30 -49 -83 -68 -119 -31 -58 -202 -363 -287 -510 l-31 -55
-247 -3 c-136 -1 -247 1 -247 5 0 5 8 22 18 38 10 17 48 86 85 155 36 69 120
226 186 350 l120 225 -43 80 c-23 44 -95 177 -159 295 -64 118 -119 223 -123
233 -6 16 9 17 257 15 l263 -3 59 -105z"/>
<path d="M11490 5511 l0 -811 70 0 70 0 0 385 0 385 144 0 145 0 159 -267 c88
-148 190 -321 228 -385 l69 -118 78 0 c42 0 77 3 77 6 0 3 -21 40 -47 82 -236
388 -413 681 -413 686 0 2 33 11 73 21 150 36 242 101 298 211 33 66 34 71 34
188 0 114 -2 125 -29 181 -38 76 -120 156 -189 184 -118 47 -168 53 -474 58
l-293 5 0 -811z m565 669 c121 -18 210 -75 258 -165 16 -31 21 -59 21 -120 1
-70 -3 -86 -28 -133 -34 -61 -86 -102 -166 -134 -49 -20 -78 -22 -282 -26
l-228 -4 0 296 0 296 178 0 c97 0 209 -5 247 -10z"/>
<path d="M15528 5908 l-3 -153 -112 -3 -113 -3 0 -54 0 -55 115 0 114 0 3
-397 c3 -386 4 -399 25 -438 61 -114 186 -157 338 -118 l70 18 0 52 c-1 29 -3
55 -6 58 -3 3 -25 -2 -49 -10 -62 -22 -148 -19 -188 5 -60 37 -62 50 -62 460
l0 370 150 0 150 0 0 55 0 55 -150 0 -150 0 0 155 0 155 -65 0 -64 0 -3 -152z"/>
<path d="M6371 5764 c-232 -62 -391 -281 -391 -539 0 -251 138 -454 357 -527
213 -70 492 6 605 165 l22 30 -44 38 -43 37 -51 -52 c-55 -56 -137 -100 -219
-118 -78 -16 -205 -5 -269 24 -68 32 -154 116 -184 183 -26 57 -49 159 -40
181 4 12 77 14 446 14 l440 0 0 73 c-1 243 -142 433 -365 492 -73 19 -192 18
-264 -1z m271 -128 c71 -29 129 -75 169 -133 31 -44 59 -126 59 -170 l0 -23
-381 0 -381 0 6 38 c9 47 60 148 94 185 86 92 165 126 292 126 66 0 97 -5 142
-23z"/>
<path d="M9233 5766 c-95 -24 -164 -65 -244 -145 -62 -63 -81 -91 -107 -154
-80 -192 -60 -416 52 -580 129 -189 390 -263 633 -182 89 30 140 64 206 134
l48 52 -47 39 -48 39 -33 -38 c-46 -55 -116 -98 -196 -123 -99 -30 -229 -23
-310 17 -70 35 -140 102 -173 167 -27 53 -58 173 -50 194 4 12 83 14 446 14
l440 0 0 83 c0 93 -17 166 -56 243 -49 97 -154 188 -262 226 -72 26 -225 33
-299 14z m289 -144 c112 -55 198 -176 198 -277 l0 -35 -377 2 -378 3 3 30 c10
90 113 229 205 277 67 34 86 37 187 35 85 -2 103 -5 162 -35z"/>
<path d="M10560 5766 c-86 -25 -175 -86 -221 -152 -17 -25 -34 -42 -40 -39 -5
4 -9 44 -9 91 l0 84 -67 0 -66 0 6 -137 c4 -75 7 -311 7 -525 l0 -388 65 0 65
0 0 299 c0 164 4 323 10 352 16 87 74 193 126 234 76 57 144 77 250 73 79 -3
96 -7 132 -31 53 -35 87 -86 107 -162 12 -48 15 -126 15 -412 l0 -353 65 0 65
0 0 348 c0 193 -5 376 -11 412 -21 134 -87 228 -195 281 -57 28 -77 32 -162
35 -60 2 -114 -2 -142 -10z"/>
<path d="M13200 5774 c-370 -71 -557 -460 -389 -810 57 -121 163 -213 301
-262 93 -33 258 -37 353 -8 182 54 318 190 371 371 24 81 24 239 0 320 -51
173 -178 308 -346 365 -64 22 -228 36 -290 24z m280 -146 c71 -32 151 -105
189 -171 28 -50 61 -176 61 -234 -1 -53 -30 -168 -57 -221 -35 -69 -107 -136
-191 -175 -63 -30 -73 -32 -182 -32 -111 0 -118 1 -183 33 -153 75 -237 217
-237 397 1 207 107 359 295 422 26 8 77 12 145 10 87 -3 114 -8 160 -29z"/>
<path d="M16550 5764 c-93 -25 -161 -65 -235 -139 -110 -110 -158 -232 -158
-400 1 -255 131 -449 353 -526 97 -34 265 -32 375 4 87 29 173 87 224 151 17
21 31 40 31 41 0 2 -20 19 -44 39 l-45 36 -45 -48 c-86 -92 -205 -137 -345
-130 -191 9 -325 127 -366 323 -7 37 -12 72 -9 77 3 4 206 8 451 8 l446 0 -6
88 c-18 248 -149 421 -362 477 -73 19 -192 18 -265 -1z m291 -138 c31 -15 75
-46 99 -69 49 -48 97 -143 102 -202 l3 -40 -374 -3 c-206 -1 -378 1 -382 5
-12 13 28 119 67 178 49 73 123 130 204 156 14 5 70 7 125 5 85 -2 108 -7 156
-30z"/>
<path d="M7230 5695 l0 -55 294 0 c162 0 297 -4 300 -8 2 -4 -26 -48 -63 -97
-37 -50 -133 -178 -213 -285 -79 -107 -192 -260 -251 -339 -87 -116 -107 -150
-107 -177 l0 -34 425 0 426 0 -3 58 -3 57 -327 5 -327 5 130 175 c72 96 145
195 163 220 18 25 101 137 184 249 135 180 152 208 152 242 l0 39 -390 0 -390
0 0 -55z"/>
<path d="M14160 5413 c0 -358 7 -436 41 -529 30 -79 104 -153 184 -184 77 -30
244 -33 315 -6 68 25 146 83 186 137 20 27 40 49 45 49 5 0 9 -40 9 -90 l0
-90 67 0 66 0 -6 173 c-4 94 -7 331 -7 525 l0 352 -65 0 -65 0 0 -305 c0 -189
-4 -324 -11 -357 -27 -126 -96 -219 -197 -266 -50 -24 -69 -27 -158 -27 -95 0
-103 2 -150 30 -58 37 -99 108 -114 200 -6 33 -10 210 -10 393 l0 332 -65 0
-65 0 0 -337z"/>
<path d="M6535 4395 c-167 -64 -184 -315 -26 -394 119 -60 262 -17 312 94 22
48 25 142 5 188 -16 38 -59 83 -100 104 -43 22 -142 26 -191 8z m139 -49 c107
-45 135 -189 52 -272 -102 -102 -256 -29 -256 121 0 116 104 193 204 151z"/>
<path d="M9545 4395 c-167 -64 -184 -315 -26 -394 119 -60 262 -17 312 94 22
48 25 142 5 188 -16 38 -59 83 -100 104 -43 22 -142 26 -191 8z m139 -49 c107
-45 135 -189 52 -272 -102 -102 -256 -29 -256 121 0 116 104 193 204 151z"/>
<path d="M11325 4395 c-167 -64 -184 -315 -26 -394 119 -60 262 -17 312 94 22
48 25 142 5 188 -16 38 -59 83 -100 104 -43 22 -142 26 -191 8z m139 -49 c107
-45 135 -189 52 -272 -102 -102 -256 -29 -256 121 0 116 104 193 204 151z"/>
<path d="M13904 4399 c-51 -15 -79 -53 -79 -109 0 -62 27 -92 108 -119 68 -23
97 -45 97 -73 0 -71 -91 -96 -152 -42 -15 14 -19 14 -42 -1 -78 -51 111 -109
201 -62 60 32 80 105 44 163 -14 23 -36 38 -78 53 -87 32 -103 42 -110 69 -16
64 81 106 131 57 19 -20 29 -19 51 5 14 16 15 22 5 35 -25 30 -113 43 -176 24z"/>
<path d="M14295 4395 c-167 -64 -184 -315 -26 -394 119 -60 262 -17 312 94 22
48 25 142 5 188 -16 38 -59 83 -100 104 -43 22 -142 26 -191 8z m139 -49 c107
-45 135 -189 52 -272 -102 -102 -256 -29 -256 121 0 116 104 193 204 151z"/>
<path d="M16035 4395 c-167 -64 -184 -315 -26 -394 119 -60 262 -17 312 94 22
48 25 142 5 188 -16 38 -59 83 -100 104 -43 22 -142 26 -191 8z m139 -49 c107
-45 135 -189 52 -272 -102 -102 -256 -29 -256 121 0 116 104 193 204 151z"/>
<path d="M16954 4399 c-51 -15 -79 -53 -79 -109 0 -62 27 -92 108 -119 68 -23
97 -45 97 -73 0 -71 -91 -96 -152 -42 -15 14 -19 14 -42 -1 -78 -51 111 -109
201 -62 60 32 80 105 44 163 -14 23 -36 38 -78 53 -87 32 -103 42 -110 69 -16
64 81 106 131 57 19 -20 29 -19 51 5 14 16 15 22 5 35 -25 30 -113 43 -176 24z"/>
<path d="M6260 4239 c0 -165 -5 -190 -41 -209 -24 -13 -69 10 -69 35 0 12 -7
14 -27 9 -41 -10 -44 -16 -23 -51 38 -63 152 -66 199 -6 19 24 21 39 21 204
l0 179 -30 0 -30 0 0 -161z"/>
<path d="M6922 4238 c4 -182 13 -214 71 -245 46 -25 149 -23 185 3 53 40 62
73 62 247 l0 157 -29 0 -30 0 -3 -159 c-3 -151 -4 -161 -26 -184 -43 -46 -114
-40 -149 11 -14 22 -18 54 -21 180 l-4 152 -30 0 -30 0 4 -162z"/>
<path d="M7342 4194 l3 -209 30 0 30 0 3 93 c3 88 4 92 25 92 17 -1 34 -22 77
-93 52 -88 57 -92 93 -95 20 -2 37 -1 37 3 0 3 -25 45 -55 94 -30 49 -55 92
-55 95 0 3 6 6 14 6 25 0 73 48 79 79 3 16 2 45 -4 65 -15 53 -52 69 -177 74
l-102 4 2 -208z m198 131 c49 -45 3 -105 -81 -105 l-49 0 0 66 0 66 55 -4 c34
-3 62 -12 75 -23z"/>
<path d="M7712 4193 l3 -208 30 0 30 0 5 153 5 154 109 -157 c109 -156 110
-156 145 -153 l36 3 3 208 2 207 -35 0 -34 0 -3 -154 -3 -155 -108 155 -108
154 -40 0 -39 0 2 -207z"/>
<path d="M8182 4193 l3 -208 140 0 c138 0 140 0 143 23 3 22 2 22 -107 22
l-111 0 0 75 0 75 95 0 c95 0 95 0 95 25 0 25 0 25 -95 25 l-95 0 0 60 0 60
105 0 105 0 0 25 0 25 -140 0 -140 0 2 -207z"/>
<path d="M8493 4385 c4 -8 38 -62 77 -119 l70 -105 0 -91 0 -90 30 0 30 0 0
90 0 91 70 105 c92 136 92 136 45 132 -36 -3 -41 -8 -89 -85 -28 -45 -53 -82
-56 -82 -3 0 -27 38 -55 84 -49 83 -51 85 -89 85 -29 0 -37 -3 -33 -15z"/>
<path d="M9040 4375 c0 -24 2 -25 65 -25 l65 0 2 -182 3 -183 30 0 30 0 3 183
2 182 65 0 c63 0 65 1 65 25 l0 25 -165 0 -165 0 0 -25z"/>
<path d="M10102 4193 l3 -208 30 0 30 0 3 208 2 207 -35 0 -35 0 2 -207z"/>
<path d="M10272 4193 l3 -208 30 0 30 0 5 153 5 154 109 -157 c109 -156 110
-156 145 -153 l36 3 3 208 2 207 -35 0 -34 0 -3 -154 -3 -155 -108 155 -108
154 -40 0 -39 0 2 -207z"/>
<path d="M10742 4193 l3 -208 30 0 30 0 5 153 5 154 109 -157 c109 -156 110
-156 145 -153 l36 3 3 208 2 207 -35 0 -34 0 -3 -154 -3 -155 -108 155 -108
154 -40 0 -39 0 2 -207z"/>
<path d="M11650 4393 c0 -5 35 -99 77 -211 l78 -203 30 3 c32 3 29 -3 158 326
l36 93 -36 -3 -36 -3 -56 -147 c-31 -80 -59 -149 -62 -153 -4 -3 -32 64 -64
150 l-58 155 -34 0 c-18 0 -33 -3 -33 -7z"/>
<path d="M12098 4201 c-49 -110 -88 -205 -88 -210 0 -6 14 -11 31 -11 27 0 33
5 52 50 l21 51 99 -3 99 -3 18 -45 c16 -41 21 -45 55 -48 33 -3 37 -1 31 15
-4 10 -44 105 -89 211 -80 189 -82 192 -112 192 -29 0 -32 -4 -117 -199z m151
26 c17 -43 31 -82 31 -87 0 -6 -32 -10 -71 -10 -57 0 -70 3 -66 14 24 63 70
166 72 164 2 -2 17 -38 34 -81z"/>
<path d="M12380 4375 c0 -24 2 -25 65 -25 l65 0 2 -182 3 -183 30 0 30 0 3
183 2 182 65 0 c63 0 65 1 65 25 l0 25 -165 0 -165 0 0 -25z"/>
<path d="M12772 4193 l3 -208 30 0 30 0 3 208 2 207 -35 0 -35 0 2 -207z"/>
<path d="M12880 4393 c0 -5 35 -99 77 -211 l78 -203 30 3 c32 3 29 -3 158 326
l36 93 -36 -3 -36 -3 -56 -147 c-31 -80 -59 -149 -62 -153 -4 -3 -32 64 -64
150 l-58 155 -34 0 c-18 0 -33 -3 -33 -7z"/>
<path d="M13302 4193 l3 -208 140 0 c138 0 140 0 143 23 3 22 2 22 -107 22
l-111 0 0 75 0 75 95 0 c95 0 95 0 95 25 0 25 0 25 -95 25 l-95 0 0 60 0 60
105 0 105 0 0 25 0 25 -140 0 -140 0 2 -207z"/>
<path d="M14682 4193 l3 -208 123 -3 122 -3 0 26 c0 25 0 25 -90 25 l-90 0 0
185 0 185 -35 0 -35 0 2 -207z"/>
<path d="M14992 4238 c4 -182 13 -214 71 -245 46 -25 149 -23 185 3 53 40 62
73 62 247 l0 157 -29 0 -30 0 -3 -159 c-3 -151 -4 -161 -26 -184 -43 -46 -114
-40 -149 11 -14 22 -18 54 -21 180 l-4 152 -30 0 -30 0 4 -162z"/>
<path d="M15370 4375 c0 -24 2 -25 65 -25 l65 0 2 -182 3 -183 30 0 30 0 3
183 2 182 65 0 c63 0 65 1 65 25 l0 25 -165 0 -165 0 0 -25z"/>
<path d="M15762 4193 l3 -208 30 0 30 0 3 208 2 207 -35 0 -35 0 2 -207z"/>
<path d="M16422 4193 l3 -208 30 0 30 0 5 153 5 154 109 -157 c109 -156 110
-156 145 -153 l36 3 3 208 2 207 -35 0 -34 0 -3 -154 -3 -155 -108 155 -108
154 -40 0 -39 0 2 -207z"/>
</g>
</svg>
